# xmcd
#
# Track frame offsets:
#	150
#	14207
#	27519
#	40306
#	58859
#
# Disc length: 986 seconds
#
# Revision: 0
# Processed by: cddbd v1.5.2PL0 Copyright (c) Steve Scherf et al.
# Submitted via: dBpowerAMP V4.0
#
DISCID=4503d805
DTITLE=ShandellTosoni - Take It or Leave It
DYEAR=2009
DGENRE=Country
TTITLE0=Take it or leave it
TTITLE1=Can you hear me
TTITLE2=Up to no good
TTITLE3=It's all about love
TTITLE4=This is goodbye
EXTD=Take it or leave it
EXTT0=
EXTT1=
EXTT2=
EXTT3=
EXTT4=
PLAYORDER=
